<?xml version="1.0" encoding="utf-8"?>
<!-- Generator: Adobe Illustrator 15.0.0, SVG Export Plug-In . SVG Version: 6.00 Build 0)  -->
<!DOCTYPE svg PUBLIC "-//W3C//DTD SVG 1.1//EN" "http://www.w3.org/Graphics/SVG/1.1/DTD/svg11.dtd">
<svg version="1.1" id="Layer_1" xmlns="http://www.w3.org/2000/svg" xmlns:xlink="http://www.w3.org/1999/xlink" x="0px" y="0px"
	 width="25px" height="21.96px" viewBox="-4.5 -3.964 25 21.96" enable-background="new -4.5 -3.964 25 21.96" xml:space="preserve"
	>
<path fill="#BCBCBC" d="M5.834,7.722h4.332v1.444H5.834V7.722z"/>
<path fill="#BCBCBC" d="M15.671,9.166h-4.062v0.722c0,0.398-0.323,0.722-0.722,0.722H5.112c-0.398,0-0.722-0.323-0.722-0.722V9.166
	H0.33c-0.934,0-1.759-0.596-2.055-1.481l-2.596-7.789v15.767c0,1.194,0.972,2.166,2.166,2.166h20.311
	c1.194,0,2.166-0.972,2.166-2.166V-0.103l-2.596,7.788C17.431,8.57,16.604,9.166,15.671,9.166z"/>
<path fill="#BCBCBC" d="M10.888-3.829H5.112c-1.194,0-2.166,0.972-2.166,2.166v0.722h-6.025l2.722,8.17
	c0.099,0.295,0.375,0.494,0.686,0.494H4.39V7c0-0.398,0.324-0.722,0.722-0.722h5.775c0.398,0,0.722,0.324,0.722,0.722v0.722h4.062
	c0.312,0,0.586-0.199,0.686-0.494l2.723-8.17h-6.025v-0.722C13.054-2.857,12.082-3.829,10.888-3.829z M4.39-0.941v-0.722
	c0-0.399,0.324-0.722,0.722-0.722h5.775c0.398,0,0.722,0.323,0.722,0.722v0.722H4.39z"/>
<rect x="7.56" y="-8.96" transform="matrix(-0.6554 -0.7553 0.7553 -0.6554 7.9629 17.7845)" fill="#FF0000" width="0.958" height="32.071"/>
<rect x="7.56" y="-9.127" transform="matrix(-0.6554 0.7553 -0.7553 -0.6554 18.5245 5.364)" fill="#FF0000" width="0.958" height="32.071"/>
</svg>
